<?xml version="1.0" encoding="UTF-8"?>
<svg xmlns="http://www.w3.org/2000/svg" fill="#FFFFFF" viewBox="0 0 50 50" width="36" height="36">
				<path
					d="M 2 3 L 2 5 L 16 5 L 16 17 L 2 17 L 2 19 L 18 19 L 18 12 L 32 12 L 32 38 L 18 38 L 18 31 L 2 31 L 2 33 L 16 33 L 16 45 L 2 45 L 2 47 L 18 47 L 18 40 L 34 40 L 34 26 L 48 26 L 48 24 L 34 24 L 34 10 L 18 10 L 18 3 Z" />
				<!--<text x="0" y="65" fill="#000000" font-size="5px" font-weight="bold" font-family="'Helvetica Neue', Helvetica, Arial-Unicode, Arial, Sans-serif">Created by NoNsEnSe ThInGs</text><text x="0" y="70" fill="#000000" font-size="5px" font-weight="bold" font-family="'Helvetica Neue', Helvetica, Arial-Unicode, Arial, Sans-serif">from the Noun Project</text>-->
			</svg>
